<svg id="discount-img" xmlns="http://www.w3.org/2000/svg" width="279.93" height="273.258" viewBox="0 0 279.93 273.258">
  <path id="Path_152" data-name="Path 152" d="M672.511,406.335l-2.956,6.9-18.129,24.041s-12.415,13.4-5.518,14.188,11.429-12.415,11.429-12.415l21.282-21.085,2.365-9.656Z" transform="translate(-485.325 -288.172)" fill="#9f616a"/>
  <path id="Path_153" data-name="Path 153" d="M713.2,340.168l-2.856.8S697.52,375.041,698.7,379.179s6.5,9.262,8.868,8.868S713.2,340.168,713.2,340.168Z" transform="translate(-516.952 -249.987)" fill="#6c63ff"/>
  <path id="Path_154" data-name="Path 154" d="M827.2,749.293s-1.255,6.286,2.516,3.77,5.736-7.381,5.736-7.381Z" transform="translate(-591.036 -484.009)" fill="#2f2e41"/>
  <path id="Path_155" data-name="Path 155" d="M682.53,418.916s-40,141.093-25.815,145.231,35.076-.394,34.879-3.153-3.744-57.344-3.744-57.344,20.691,72.517,46.308,55.57,19.9-20.1,17.538-21.282-38.032-57.344-37.835-67.788-.394-43.156-4.729-48.082Z" transform="translate(-491.008 -295.433)" fill="#2f2e41"/>
  <path id="Path_156" data-name="Path 156" d="M330.233,644.895H87.455v-.923H330.4Z" transform="translate(-50.47 -371.637)" fill="#3f3d56"/>
  <path id="Path_157" data-name="Path 157" d="M777.01,285.071a8.275,8.275,0,0,1-1.028-11.158c-.167.156-.33.318-.486.491a8.276,8.276,0,0,0,12.278,11.1c.156-.172.3-.351.44-.532A8.275,8.275,0,0,1,777.01,285.071Z" transform="translate(-560.081 -211.751)" fill="#2f2e41"/>
  <circle id="Ellipse_21" data-name="Ellipse 21" cx="17.045" cy="17.045" r="17.045" transform="translate(199.108 41.212)" fill="#2f2e41"/>
  <path id="Path_158" data-name="Path 158" d="M668.839,760.936s-4.532,4.532,0,4.532,8.868-2.956,8.868-2.956Z" transform="translate(-498.599 -492.812)" fill="#2f2e41"/>
  <path id="Path_159" data-name="Path 159" d="M746.194,284.843s2.956,12.218.788,14.582-6.9,4.138-6.9,4.138l.788,22.07s9.065-3.153,9.459-3.547,8.473-13.2,8.473-13.2l7.882-7.488s-12.02-5.715-8.473-15.568S746.194,284.843,746.194,284.843Z" transform="translate(-540.878 -215.944)" fill="#9f616a"/>
  <circle id="Ellipse_22" data-name="Ellipse 22" cx="10.247" cy="10.247" r="10.247" transform="translate(200.85 71.657) rotate(-80.783)" fill="#9f616a"/>
  <path id="Path_160" data-name="Path 160" d="M746.854,369.094s4.532-14.976,6.7-16.947,7.488-20.494,7.488-20.494-3.35-4.532-6.109-4.532-5.32.985-8.473,3.941a31.535,31.535,0,0,1-6.643,4.154,7.349,7.349,0,0,1-9.948-3.32,2.887,2.887,0,0,1-.158-2.8s-7.291,1.971-7.685,4.729,0,8.473-.591,9.656-2.365,2.956-1.576,10.444-.823,16.957-.823,16.957C726.4,377.9,736.594,373.566,746.854,369.094Z" transform="translate(-528.73 -242.457)" fill="#6c63ff"/>
  <ellipse id="Ellipse_23" data-name="Ellipse 23" cx="8.671" cy="5.912" rx="8.671" ry="5.912" transform="translate(203.838 48.109)" fill="#2f2e41"/>
  <circle id="Ellipse_24" data-name="Ellipse 24" cx="8.276" cy="8.276" r="8.276" transform="translate(219.011 37.074)" fill="#2f2e41"/>
  <path id="Path_161" data-name="Path 161" d="M809.17,237.786a8.275,8.275,0,0,1-8.245-7.586c-.019.226-.031.456-.031.689a8.276,8.276,0,0,0,16.553.007v-.007c0-.232-.012-.462-.031-.69A8.276,8.276,0,0,1,809.17,237.786Z" transform="translate(-575.971 -186.524)" fill="#2f2e41"/>
  <path id="Path_162" data-name="Path 162" d="M494.263,420.53H491.51l-5.5,47.991,18.147-.609Z" transform="translate(-280.475 -242.688)" fill="#6c63ff"/>
  <path id="Path_163" data-name="Path 163" d="M494.263,420.53H491.51l-5.5,47.991,18.147-.609Z" transform="translate(-280.475 -242.688)" opacity="0.2" style="isolation: isolate"/>
  <path id="Path_164" data-name="Path 164" d="M498.77,419.08l-3.362,48.3,41.186,3.058,3.362-47.077Z" transform="translate(-285.9 -241.851)" fill="#6c63ff"/>
  <circle id="Ellipse_25" data-name="Ellipse 25" cx="0.613" cy="0.613" r="0.613" transform="translate(226.124 180.895)" opacity="0.2" style="isolation: isolate"/>
  <circle id="Ellipse_26" data-name="Ellipse 26" cx="0.613" cy="0.613" r="0.613" transform="translate(238.963 182.422)" opacity="0.2" style="isolation: isolate"/>
  <path id="Path_165" data-name="Path 165" d="M817.611,539.827h-.3c0-.131.216-13.025-7.189-14.214a3.9,3.9,0,0,0-3.544.981c-3.057,3.032-1.793,11.6-1.78,11.681l-.3.046c-.055-.359-1.3-8.8,1.869-11.943a4.175,4.175,0,0,1,3.806-1.07C817.831,526.535,817.615,539.7,817.611,539.827Z" transform="translate(-577.883 -356.787)" fill="#3f3d56"/>
  <path id="Path_166" data-name="Path 166" d="M807.664,402.142l-.985,11.035,1.97,33.106s4.532,16.75-2.365,16.356S801.95,445.1,801.95,445.1L798.8,406.674Z" transform="translate(-574.761 -285.752)" fill="#9f616a"/>
  <path id="Path_167" data-name="Path 167" d="M797.916,331.315l5.124,2.759s6.9,46.878,2.956,51.41-12.021,6.306-12.415,4.532-1.774-37.813-1.774-37.813Z" transform="translate(-570.727 -244.878)" fill="#6c63ff"/>
  <path id="Path_168" data-name="Path 168" d="M326.115,126.923h-5.747a.762.762,0,0,0-.762.762v2.522a.762.762,0,0,0,.762.762h.952v3.779h3.842v-3.779h.952a.762.762,0,0,0,.762-.762v-2.522A.762.762,0,0,0,326.115,126.923Z" transform="translate(-298.219 -126.923)" fill="#e6e6e6"/>
  <path id="Path_169" data-name="Path 169" d="M324.651,155.271a29.545,29.545,0,0,1-5.14-17.517.623.623,0,0,0-.486-.622v-1.09h-6.069v1.075h-.084a.623.623,0,0,0-.622.624c0,.015,0,.03,0,.045a26.963,26.963,0,0,1-4.844,17.932,1.717,1.717,0,0,0-.311,1.04l.664,20.529A1.777,1.777,0,0,0,309.523,179h13.728a1.778,1.778,0,0,0,1.763-1.745l.256-19.932A3.6,3.6,0,0,0,324.651,155.271Z" transform="translate(-291 -132.186)" fill="#e6e6e6"/>
  <path id="Path_170" data-name="Path 170" d="M325.488,197.635H313.539a1.227,1.227,0,0,0-1.213,1.413l1.806,11.737H324.5l2.193-11.7a1.227,1.227,0,0,0-1.206-1.453Z" transform="translate(-294.01 -167.731)" fill="#fff"/>
  <path id="Path_171" data-name="Path 171" d="M477.386,272.339h-5.747a.762.762,0,0,0-.762.762v2.522a.762.762,0,0,0,.762.762h.952v3.779h3.842v-3.779h.952a.762.762,0,0,0,.762-.762V273.1A.762.762,0,0,0,477.386,272.339Z" transform="translate(-385.518 -210.843)" fill="#e6e6e6"/>
  <path id="Path_172" data-name="Path 172" d="M475.923,300.687a29.545,29.545,0,0,1-5.14-17.517.623.623,0,0,0-.486-.622v-1.09h-6.069v1.075h-.084a.623.623,0,0,0-.622.624q0,.023,0,.045a26.963,26.963,0,0,1-4.844,17.932,1.716,1.716,0,0,0-.311,1.04l.664,20.529a1.777,1.777,0,0,0,1.762,1.715h13.728a1.778,1.778,0,0,0,1.763-1.745l.256-19.932A3.6,3.6,0,0,0,475.923,300.687Z" transform="translate(-378.299 -216.105)" fill="#e6e6e6"/>
  <path id="Path_173" data-name="Path 173" d="M476.76,343.051H464.81a1.227,1.227,0,0,0-1.213,1.413L465.4,356.2h10.368l2.193-11.7a1.227,1.227,0,0,0-1.206-1.453Z" transform="translate(-381.309 -251.651)" fill="#fff"/>
  <path id="Path_174" data-name="Path 174" d="M311.679,477.914h-2.726a.361.361,0,0,0-.361.361v1.2a.361.361,0,0,0,.361.361h.452v1.793h1.823v-1.793h.452a.361.361,0,0,0,.361-.361v-1.2A.361.361,0,0,0,311.679,477.914Z" transform="translate(-291.863 -329.48)" fill="#e6e6e6"/>
  <path id="Path_175" data-name="Path 175" d="M310.985,491.36a14.015,14.015,0,0,1-2.438-8.309.3.3,0,0,0-.231-.295v-.517h-2.879v.51h-.04a.3.3,0,0,0-.295.3c0,.007,0,.014,0,.021a12.79,12.79,0,0,1-2.3,8.506.813.813,0,0,0-.147.493l.315,9.738a.843.843,0,0,0,.836.814h6.512a.843.843,0,0,0,.836-.828l.121-9.455a1.706,1.706,0,0,0-.293-.974Z" transform="translate(-288.439 -331.976)" fill="#e6e6e6"/>
  <rect id="Rectangle_32" data-name="Rectangle 32" width="6.213" height="3.107" transform="translate(15.396 162.964)" fill="#fff"/>
  <path id="Path_176" data-name="Path 176" d="M341.685,477.914h-2.726a.361.361,0,0,0-.361.361v1.2a.361.361,0,0,0,.361.361h.452v1.793h1.823v-1.793h.452a.361.361,0,0,0,.361-.361v-1.2A.361.361,0,0,0,341.685,477.914Z" transform="translate(-309.179 -329.48)" fill="#e6e6e6"/>
  <path id="Path_177" data-name="Path 177" d="M340.991,491.36a14.014,14.014,0,0,1-2.438-8.309.3.3,0,0,0-.231-.295v-.517h-2.879v.51h-.04a.3.3,0,0,0-.3.3c0,.007,0,.014,0,.021a12.79,12.79,0,0,1-2.3,8.506.813.813,0,0,0-.147.493l.315,9.738a.843.843,0,0,0,.836.814h6.512a.843.843,0,0,0,.836-.828l.121-9.455A1.706,1.706,0,0,0,340.991,491.36Z" transform="translate(-305.755 -331.976)" fill="#e6e6e6"/>
  <rect id="Rectangle_33" data-name="Rectangle 33" width="6.213" height="3.107" transform="translate(28.085 162.964)" fill="#fff"/>
  <path id="Path_178" data-name="Path 178" d="M371.69,477.914h-2.726a.361.361,0,0,0-.361.361v1.2a.361.361,0,0,0,.361.361h.452v1.793h1.822v-1.793h.452a.361.361,0,0,0,.361-.361v-1.2a.361.361,0,0,0-.361-.361Z" transform="translate(-326.496 -329.48)" fill="#e6e6e6"/>
  <path id="Path_179" data-name="Path 179" d="M371,491.36a14.014,14.014,0,0,1-2.438-8.309.3.3,0,0,0-.231-.295v-.517h-2.879v.51h-.04a.3.3,0,0,0-.295.3c0,.007,0,.014,0,.021a12.79,12.79,0,0,1-2.3,8.506.814.814,0,0,0-.147.493l.315,9.738a.843.843,0,0,0,.836.814h6.512a.843.843,0,0,0,.836-.828l.121-9.455A1.707,1.707,0,0,0,371,491.36Z" transform="translate(-323.071 -331.976)" fill="#e6e6e6"/>
  <rect id="Rectangle_34" data-name="Rectangle 34" width="6.213" height="3.107" transform="translate(40.775 162.964)" fill="#fff"/>
  <path id="Path_180" data-name="Path 180" d="M453.779,421.658h-5.747a.762.762,0,0,0-.762.762v2.522a.762.762,0,0,0,.762.762h.952v3.779h3.842V425.7h.952a.762.762,0,0,0,.762-.762V422.42A.762.762,0,0,0,453.779,421.658Z" transform="translate(-371.895 -297.015)" fill="#e6e6e6"/>
  <path id="Path_181" data-name="Path 181" d="M452.316,450.006a29.545,29.545,0,0,1-5.14-17.517.623.623,0,0,0-.486-.622v-1.09H440.62v1.075h-.084a.623.623,0,0,0-.622.624c0,.015,0,.03,0,.045a26.963,26.963,0,0,1-4.844,17.932,1.717,1.717,0,0,0-.311,1.04l.664,20.529a1.777,1.777,0,0,0,1.762,1.715h13.728a1.778,1.778,0,0,0,1.763-1.745l.256-19.932A3.6,3.6,0,0,0,452.316,450.006Z" transform="translate(-364.675 -302.278)" fill="#e6e6e6"/>
  <path id="Path_182" data-name="Path 182" d="M453.153,492.37H441.2a1.227,1.227,0,0,0-1.212,1.413l1.806,11.737h10.368l2.193-11.7a1.227,1.227,0,0,0-1.206-1.453Z" transform="translate(-367.685 -337.823)" fill="#fff"/>
  <path id="Path_183" data-name="Path 183" d="M423.332,181.921H389.076c2.395-12.949,1.844-28.585,0-45.4h34.256C421.537,153.337,421,168.973,423.332,181.921Z" transform="translate(-338.311 -132.462)" fill="#e6e6e6"/>
  <circle id="Ellipse_27" data-name="Ellipse 27" cx="8.255" cy="8.255" r="8.255" transform="translate(59.845 17.266)" fill="#fff"/>
  <path id="Path_184" data-name="Path 184" d="M349.16,324.409H314.9c2.395-12.949,1.844-28.585,0-45.4H349.16C347.366,295.824,346.829,311.46,349.16,324.409Z" transform="translate(-295.506 -214.692)" fill="#e6e6e6"/>
  <circle id="Ellipse_28" data-name="Ellipse 28" cx="8.255" cy="8.255" r="8.255" transform="translate(28.478 77.524)" fill="#fff"/>
  <path id="Path_185" data-name="Path 185" d="M469.2,188.753H434.945c2.4-12.949,1.844-28.585,0-45.4H469.2C467.407,160.168,466.87,175.8,469.2,188.753Z" transform="translate(-364.782 -136.405)" fill="#e6e6e6"/>
  <circle id="Ellipse_29" data-name="Ellipse 29" cx="8.255" cy="8.255" r="8.255" transform="translate(79.243 20.155)" fill="#fff"/>
  <path id="Path_186" data-name="Path 186" d="M469.2,183.873H434.945c2.4-12.949,1.844-28.585,0-45.4H469.2C467.407,155.289,466.87,170.924,469.2,183.873Z" transform="translate(-364.782 -133.589)" fill="#e6e6e6"/>
  <circle id="Ellipse_30" data-name="Ellipse 30" cx="8.255" cy="8.255" r="8.255" transform="translate(79.243 18.092)" fill="#fff"/>
  <path id="Path_187" data-name="Path 187" d="M469.2,188.753H434.945c2.4-12.949,1.844-28.585,0-45.4H469.2C467.407,160.168,466.87,175.8,469.2,188.753Z" transform="translate(-364.782 -136.405)" fill="#e6e6e6"/>
  <circle id="Ellipse_31" data-name="Ellipse 31" cx="8.255" cy="8.255" r="8.255" transform="translate(79.243 20.155)" fill="#fff"/>
  <rect id="Rectangle_35" data-name="Rectangle 35" width="112.262" height="12.382" transform="translate(0 46.983)" fill="#e6e6e6"/>
  <rect id="Rectangle_36" data-name="Rectangle 36" width="112.262" height="12.382" transform="translate(0 108.479)" fill="#e6e6e6"/>
  <rect id="Rectangle_37" data-name="Rectangle 37" width="112.262" height="12.382" transform="translate(0 169.975)" fill="#e6e6e6"/>
</svg>
