<svg id="icon-ig" xmlns="http://www.w3.org/2000/svg" width="32" height="32" viewBox="0 0 32 32">
  <path id="Path_193" data-name="Path 193" d="M213.125,210.063A3.063,3.063,0,1,1,210.063,207,3.062,3.062,0,0,1,213.125,210.063Zm0,0" transform="translate(-194.063 -194.063)"/>
  <path id="Path_194" data-name="Path 194" d="M150.179,137.6a3.042,3.042,0,0,0-1.744-1.744,5.083,5.083,0,0,0-1.706-.316c-.969-.044-1.26-.054-3.713-.054s-2.744.009-3.713.053a5.086,5.086,0,0,0-1.706.316,3.044,3.044,0,0,0-1.744,1.744,5.085,5.085,0,0,0-.316,1.706c-.044.969-.054,1.259-.054,3.713s.01,2.744.054,3.713a5.083,5.083,0,0,0,.316,1.706,3.042,3.042,0,0,0,1.744,1.744,5.077,5.077,0,0,0,1.706.316c.969.044,1.259.053,3.712.053s2.744-.009,3.713-.053a5.077,5.077,0,0,0,1.706-.316,3.042,3.042,0,0,0,1.744-1.744,5.088,5.088,0,0,0,.316-1.706c.044-.969.053-1.26.053-3.713s-.009-2.744-.053-3.713A5.077,5.077,0,0,0,150.179,137.6Zm-7.162,10.136a4.718,4.718,0,1,1,4.718-4.718A4.718,4.718,0,0,1,143.017,147.738Zm4.9-8.52a1.1,1.1,0,1,1,1.1-1.1A1.1,1.1,0,0,1,147.921,139.219Zm0,0" transform="translate(-127.017 -127.02)"/>
  <path id="Path_195" data-name="Path 195" d="M16,0A16,16,0,1,0,32,16,16,16,0,0,0,16,0Zm9.132,19.788a6.741,6.741,0,0,1-.427,2.23,4.7,4.7,0,0,1-2.687,2.687,6.745,6.745,0,0,1-2.23.427c-.98.045-1.293.055-3.788.055s-2.808-.011-3.788-.055a6.745,6.745,0,0,1-2.23-.427A4.7,4.7,0,0,1,7.3,22.018a6.739,6.739,0,0,1-.427-2.23c-.045-.98-.056-1.293-.056-3.788s.01-2.808.055-3.788a6.741,6.741,0,0,1,.427-2.23A4.7,4.7,0,0,1,9.982,7.295a6.747,6.747,0,0,1,2.23-.427c.98-.045,1.293-.055,3.788-.055s2.808.011,3.788.056a6.748,6.748,0,0,1,2.23.427,4.7,4.7,0,0,1,2.687,2.687,6.74,6.74,0,0,1,.427,2.23c.045.98.055,1.293.055,3.788S25.177,18.808,25.132,19.788Zm0,0"/>
</svg>
