<svg id="icon-line" xmlns="http://www.w3.org/2000/svg" width="32" height="32" viewBox="0 0 32 32">
  <path id="Path_196" data-name="Path 196" d="M590.63,291.3a16,16,0,1,0,16,16A16,16,0,0,0,590.63,291.3Zm8.761,19.4a15.3,15.3,0,0,1-3.392,3.5c-2.384,1.837-5.208,3.117-6.252,3.117a.6.6,0,0,1-.6-.6v-2.245a11.129,11.129,0,0,1-6.052-2.609,7.443,7.443,0,0,1,.3-11.8,11.944,11.944,0,0,1,14.465,0,7.748,7.748,0,0,1,3.061,6.029A8.2,8.2,0,0,1,599.391,310.7Z" transform="translate(-574.63 -291.3)"/>
  <path id="Path_197" data-name="Path 197" d="M622.99,334.15c-4.99,0-9.05,3.242-9.05,7.226,0,3.7,3.608,6.857,8.215,7.195a.6.6,0,0,1,.55.6v2.047a10.93,10.93,0,0,0,1.455-.593,20.18,20.18,0,0,0,3.447-2.128c2.024-1.557,4.435-4.058,4.435-7.121C632.038,337.392,627.978,334.15,622.99,334.15Zm-3.663,9.757h-2.038c-.317,0-.548-.185-.548-.443v-4.18c0-.261.242-.437.6-.437s.6.175.6.437v3.531h1.388c.254,0,.432.224.432.546S619.578,343.907,619.327,343.907Zm1.926-.443c0,.257-.25.443-.6.443s-.6-.175-.6-.443v-4.18c0-.261.24-.437.6-.437s.6.175.6.437Zm4.093,0c0,.257-.252.443-.6.443a.674.674,0,0,1-.641-.35l-1.05-1.953v1.867c0,.257-.252.443-.6.443s-.6-.175-.6-.443v-4.18c0-.266.24-.444.6-.444.389,0,.564.122.784.541l.9,1.75v-1.853c0-.261.24-.437.6-.437s.6.175.6.437Zm2.61-2.6a.473.473,0,0,1,.443.514.467.467,0,0,1-.443.5h-.805v.933h1.64c.257,0,.445.231.445.551a.479.479,0,0,1-.445.541H626.5c-.317,0-.546-.185-.546-.443v-4.173a.486.486,0,0,1,.546-.444h2.29a.483.483,0,0,1,.445.541.5.5,0,0,1-.445.553h-1.64v.926Z" transform="translate(-606.99 -326.574)"/>
</svg>
