<svg id="email" xmlns="http://www.w3.org/2000/svg" width="32" height="32" viewBox="0 0 32 32">
  <path id="Path_221" data-name="Path 221" d="M146.048,144H133.625l6.212,5.324Zm0,0" transform="translate(-123.837 -133.633)"/>
  <path id="Path_222" data-name="Path 222" d="M127.148,159.343a.549.549,0,0,1-.358-.133l-6.79-5.82v10.352h14.3V153.391l-6.79,5.82A.549.549,0,0,1,127.148,159.343Zm0,0" transform="translate(-111.148 -142.225)"/>
  <path id="Path_223" data-name="Path 223" d="M16,0A16,16,0,1,0,32,16,16,16,0,0,0,16,0Zm8.571,22.286a.571.571,0,0,1-.571.571H8a.571.571,0,0,1-.571-.571V9.714A.571.571,0,0,1,8,9.143H24a.571.571,0,0,1,.571.571Zm0,0"/>
</svg>
