<svg xmlns="http://www.w3.org/2000/svg" width="114.003" height="114.003" viewBox="0 0 114.003 114.003">
  <g id="img-3" transform="translate(0 -0.001)">
    <g id="Group_25" data-name="Group 25" transform="translate(53.885 0.002)">
      <path id="Path_135" data-name="Path 135" d="M242,90.625a23.379,23.379,0,1,0,37.852-18.362V14.475a14.473,14.473,0,0,0-28.946,0V72.264A23.337,23.337,0,0,0,242,90.625Z" transform="translate(-242.004 -0.002)" fill="#e2dff4"/>
      <path id="Path_136" data-name="Path 136" d="M370.383,90.625a23.337,23.337,0,0,0-8.906-18.362V14.475A14.473,14.473,0,0,0,347,0V114A23.379,23.379,0,0,0,370.383,90.625Z" transform="translate(-323.625 -0.002)" fill="#bebcdd"/>
      <path id="Path_137" data-name="Path 137" d="M288.7,130.645a16.7,16.7,0,0,1-10.335-29.818l2.541-2.006V37.8a7.793,7.793,0,1,1,15.586,0V98.821l2.541,2.006A16.7,16.7,0,0,1,288.7,130.645Z" transform="translate(-265.324 -23.322)" fill="#f9f9f9"/>
      <path id="Path_138" data-name="Path 138" d="M347,130.645a16.7,16.7,0,0,0,10.335-29.818L354.8,98.821V37.8A7.8,7.8,0,0,0,347,30Z" transform="translate(-323.625 -23.322)" fill="#e2dff4"/>
      <g id="Group_23" data-name="Group 23" transform="translate(13.36 69.47)">
        <path id="Path_139" data-name="Path 139" d="M315.364,323.71v-8.368a3.34,3.34,0,1,0-6.68,0v8.368a10.02,10.02,0,1,0,6.68,0Z" transform="translate(-302.004 -312.002)" fill="#8bb9ff"/>
        <g id="Group_22" data-name="Group 22" transform="translate(10.02)">
          <path id="Path_140" data-name="Path 140" d="M350.344,323.71v-8.368A3.34,3.34,0,0,0,347,312v31.173a10.019,10.019,0,0,0,3.34-19.465Z" transform="translate(-347.004 -312.002)" fill="#7d81e7"/>
        </g>
      </g>
      <g id="Group_24" data-name="Group 24" transform="translate(46.759 13.36)">
        <path id="Path_141" data-name="Path 141" d="M462.024,66.682h-6.68a3.34,3.34,0,1,1,0-6.68h6.68a3.34,3.34,0,0,1,0,6.68Z" transform="translate(-452.004 -60.002)" fill="#453d81"/>
        <path id="Path_142" data-name="Path 142" d="M458.684,126.682h-3.34a3.34,3.34,0,1,1,0-6.68h3.34a3.34,3.34,0,1,1,0,6.68Z" transform="translate(-452.004 -106.642)" fill="#453d81"/>
        <path id="Path_143" data-name="Path 143" d="M462.024,186.682h-6.68a3.34,3.34,0,1,1,0-6.68h6.68a3.34,3.34,0,0,1,0,6.68Z" transform="translate(-452.004 -153.283)" fill="#453d81"/>
        <path id="Path_144" data-name="Path 144" d="M458.684,246.682h-3.34a3.34,3.34,0,1,1,0-6.68h3.34a3.34,3.34,0,1,1,0,6.68Z" transform="translate(-452.004 -199.923)" fill="#453d81"/>
        <path id="Path_145" data-name="Path 145" d="M462.024,306.682h-6.68a3.34,3.34,0,1,1,0-6.68h6.68a3.34,3.34,0,0,1,0,6.68Z" transform="translate(-452.004 -246.563)" fill="#453d81"/>
      </g>
    </g>
    <g id="Group_26" data-name="Group 26" transform="translate(0 0.001)">
      <path id="Path_146" data-name="Path 146" d="M51.579,31.07l-7.788,2.087-6.049-3.492a9.9,9.9,0,0,0,0-3.66l6.049-3.492L51.579,24.6a3.34,3.34,0,0,0,1.729-6.452l-5.9-1.581,1.58-5.9a3.34,3.34,0,1,0-6.452-1.729l-2.087,7.789L34.4,20.222a10.017,10.017,0,0,0-3.165-1.833V11.4l5.7-5.7A3.34,3.34,0,1,0,32.211.98L27.893,5.3,23.574.98A3.34,3.34,0,1,0,18.851,5.7l5.7,5.7v6.984a10.017,10.017,0,0,0-3.165,1.833l-6.054-3.495L13.247,8.939a3.34,3.34,0,1,0-6.452,1.729l1.581,5.9-5.9,1.581A3.34,3.34,0,1,0,4.205,24.6l7.788-2.087L18.043,26a9.9,9.9,0,0,0,0,3.66l-6.049,3.492L4.205,31.069a3.34,3.34,0,0,0-1.729,6.452l5.9,1.581L6.794,45a3.34,3.34,0,1,0,6.452,1.729l2.087-7.789,6.054-3.5a10.022,10.022,0,0,0,3.165,1.833v6.984l-5.7,5.7a3.34,3.34,0,0,0,4.723,4.723l4.318-4.318,4.318,4.318a3.34,3.34,0,0,0,4.723-4.723l-5.7-5.7V37.279A10.017,10.017,0,0,0,34.4,35.446l6.054,3.5,2.087,7.789A3.34,3.34,0,1,0,48.989,45l-1.58-5.9,5.9-1.581a3.34,3.34,0,0,0-1.728-6.452Zm-23.687.1a3.34,3.34,0,1,1,3.34-3.34A3.344,3.344,0,0,1,27.892,31.174Z" transform="translate(0 -0.001)" fill="#8bb9ff"/>
      <path id="Path_147" data-name="Path 147" d="M148.955,31.07l-7.788,2.087-6.049-3.492a9.9,9.9,0,0,0,0-3.66l6.049-3.492,7.788,2.087a3.34,3.34,0,1,0,1.729-6.452l-5.9-1.581,1.58-5.9a3.34,3.34,0,1,0-6.452-1.729l-2.087,7.789-6.054,3.495a10.017,10.017,0,0,0-3.165-1.833V11.4l5.7-5.7A3.34,3.34,0,0,0,129.586.98L125.268,5.3v19.2a3.34,3.34,0,0,1,0,6.68v19.2l4.318,4.318a3.34,3.34,0,0,0,4.723-4.723l-5.7-5.7V37.279a10.017,10.017,0,0,0,3.165-1.833l6.054,3.5,2.087,7.789A3.34,3.34,0,1,0,146.365,45l-1.58-5.9,5.9-1.581a3.34,3.34,0,1,0-1.729-6.452Z" transform="translate(-97.376 -0.001)" fill="#7d81e7"/>
    </g>
  </g>
</svg>
