<svg xmlns="http://www.w3.org/2000/svg" width="130" height="127.239" viewBox="0 0 130 127.239">
  <g id="img-1" transform="translate(0 -5.437)">
    <path id="Path_105" data-name="Path 105" d="M320,35.316a2.693,2.693,0,0,1-1.624-2.247,16.6,16.6,0,0,0-15.688-15.161,3.287,3.287,0,0,1-2.91-2.277c-4.365-12.609-21.55-13.679-27.758-2.325l-.149.273.3.1A16.718,16.718,0,0,1,283.456,28.31,51.755,51.755,0,0,1,309.865,46.5l.322.419.136-.51c.936-3.506,3.548-9.489,10.526-10.161l.89-.1C320.674,35.628,320.377,35.476,320,35.316Z" transform="translate(-202.844 0)" fill="#3bbc56"/>
    <g id="Group_19" data-name="Group 19" transform="translate(0 5.438)">
      <path id="Path_106" data-name="Path 106" d="M295.9,9.546a15.361,15.361,0,0,0-23.878,3.763l-.149.273.3.1a16.461,16.461,0,0,1,5.08,2.791A15.285,15.285,0,0,1,295.9,9.546Z" transform="translate(-202.844 -5.442)" fill="#30aa44"/>
      <path id="Path_107" data-name="Path 107" d="M64.042,308.918l.017,0,.071-.516Z" transform="translate(-47.781 -231.481)" fill="#30aa44"/>
      <path id="Path_108" data-name="Path 108" d="M59.1,308.336h.009c.012-.312.01-.2.009-.521Z" transform="translate(-44.097 -231.041)" fill="#30aa44"/>
      <path id="Path_109" data-name="Path 109" d="M65.081,32.541a17.077,17.077,0,0,0-13.062,5.03,3.715,3.715,0,0,1-4.076.9A18.567,18.567,0,0,0,24.8,46.185a3.054,3.054,0,0,1-2.756,1.5C4.545,46.972-6.2,66.742,3.9,81.017a6.1,6.1,0,0,1,.631,6A14.68,14.68,0,0,0,8.74,104.466a11.959,11.959,0,0,1,5.215-1.538A52.044,52.044,0,0,1,81.146,48.674,17.058,17.058,0,0,0,65.081,32.541Z" transform="translate(0 -25.642)" fill="#30aa44"/>
    </g>
    <path id="Path_110" data-name="Path 110" d="M9.741,131.344a6.3,6.3,0,0,0-.631-6.1,21.723,21.723,0,0,1,10.769-32.91c-16.2.918-25.655,19.636-15.979,33.313a6.1,6.1,0,0,1,.631,6A14.68,14.68,0,0,0,8.74,149.1a12.285,12.285,0,0,1,3.771-1.365A15.082,15.082,0,0,1,9.741,131.344Z" transform="translate(0 -64.834)" fill="#239b31"/>
    <path id="Path_111" data-name="Path 111" d="M146.37,105.543a53.036,53.036,0,0,0-18.07-14.96,51.969,51.969,0,0,0-23.6-5.59,52.57,52.57,0,0,0-52.327,57.124l.257-.018c7.093-.5,12.066,6.4,12.116,6.473l.071.1.122.009c5.953.454,10.667,3.841,14.01,10.064a33.158,33.158,0,0,1,3.261,9.307l.033.206.208.013c10.245.658,17.814,11,22.107,20.382,3.8-13.338,12.447-24.567,26.079-26.839l.249-.042-.034-.251c-.029-.211-2.739-21.218,9.238-28.782l.176-.111-.071-.2c-.061-.169-5.926-16.993,5.7-24.537l.1-.067.014-.121a15.4,15.4,0,0,1,.4-1.939l.033-.124Z" transform="translate(-38.936 -59.356)" fill="#83cc8e"/>
    <path id="Path_112" data-name="Path 112" d="M109.427,85.2q-2.343-.206-4.728-.208a52.57,52.57,0,0,0-52.327,57.124l.257-.018a11.209,11.209,0,0,1,5.267.956A54.634,54.634,0,0,1,109.427,85.2Z" transform="translate(-38.936 -59.356)" fill="#78c181"/>
    <path id="Path_113" data-name="Path 113" d="M65.911,345.257c-4.565-6.3-9.837-10.086-15.348-11.062a2.451,2.451,0,0,1-1.967-1.807c-2.115-8.444-7.2-16.38-15.865-17.822a3.826,3.826,0,0,1-2.235-1.226c-5.1-5.738-11.942-7.614-18.578-2.829-11.051,7.968-1.553,17.973,8.649,15.921,2.978-.6,4.684,2.856,7.046,7.639,2.6,5.274,5.846,11.838,12.358,16.644,5.647,4.169,12.7,6.233,21.4,6.233a69.131,69.131,0,0,0,10.5-.87A51.546,51.546,0,0,0,65.911,345.257Z" transform="translate(-5.201 -225.58)" fill="#3bbc56"/>
    <path id="Path_114" data-name="Path 114" d="M66.576,356.691c-8.7,0-15.751-2.064-21.4-6.233-6.511-4.806-9.753-11.37-12.358-16.644-2.362-4.783-4.068-8.24-7.046-7.639-10.2,2.052-19.7-7.953-8.649-15.921a14.641,14.641,0,0,1,4.6-2.279,12.622,12.622,0,0,0-9.814,2.539c-11.051,7.968-1.553,17.973,8.649,15.921,2.978-.6,4.684,2.856,7.046,7.639,2.6,5.274,5.846,11.838,12.358,16.644,5.647,4.169,12.7,6.233,21.4,6.233,1.9,0,3.745-.1,5.58-.265C66.823,356.687,66.7,356.691,66.576,356.691Z" transform="translate(-5.2 -225.585)" fill="#30aa44"/>
    <path id="Path_115" data-name="Path 115" d="M176.169,155.362a1.954,1.954,0,0,0-2.641-.812A41.791,41.791,0,0,0,154.1,175.925a44.277,44.277,0,0,0-1.631,4.771,77.669,77.669,0,0,0-6.848-14.061c.415-2.016,3.04-13.069,11.907-20.483a1.954,1.954,0,1,0-2.506-3c-7.331,6.13-10.793,14.3-12.3,19.124-8.022-11.246-16.342-16.728-16.724-16.976a1.954,1.954,0,0,0-2.128,3.277,57.05,57.05,0,0,1,8.8,7.672,34.5,34.5,0,0,0-13.717,1.18,1.953,1.953,0,1,0,1.25,3.7,31,31,0,0,1,16.694-.074,75.017,75.017,0,0,1,4.74,6.574,72.789,72.789,0,0,1,4.228,7.548c-13.2-6.15-30.741.662-31.587,1a1.954,1.954,0,0,0,1.442,3.631c.215-.085,21.491-8.359,32.887,1.784a75.821,75.821,0,0,1,4.049,16.115c-3.949-2.11-11.429-5.233-20.058-4.457a1.954,1.954,0,0,0,.35,3.891c10.186-.914,18.88,4.52,20.228,5.411a90,90,0,0,1-1.575,24.383,1.954,1.954,0,0,0,3.833.756,90.009,90.009,0,0,0,.088-36.467c-.168-.781-.351-1.556-.542-2.329,0-.033.007-.065.007-.1A38.466,38.466,0,0,1,175.358,158,1.953,1.953,0,0,0,176.169,155.362Z" transform="translate(-84.344 -102.411)" fill="#9be0a3"/>
    <path id="Path_116" data-name="Path 116" d="M316.112,215.755a98.189,98.189,0,0,0-3.888-23.4l-.194,0c-8.84.193-9.917,15.5-9.959,16.159-.622,13.211-18.568,32.228-19.738,33.41-14.281,2.45-23.653,14.838-26.738,27.617a30.243,30.243,0,0,0,12.784,2.59c.49,0,.993-.01,1.506-.031,7.879-.328,20.051-3.465,33.3-16.545C313.65,245.222,316.7,230.333,316.112,215.755Z" transform="translate(-190.698 -139.456)" fill="#3bbc56"/>
    <g id="Group_20" data-name="Group 20" transform="translate(64.897 35.673)">
      <path id="Path_117" data-name="Path 117" d="M265.174,406.525c3.487-7.974,9.2-14.974,16.826-18.675-14.092,2.585-23.344,14.874-26.405,27.552a30.243,30.243,0,0,0,12.784,2.59c.49,0,.993-.01,1.506-.031.62-.026,1.269-.071,1.94-.136l-.134-.014A8.079,8.079,0,0,1,265.174,406.525Z" transform="translate(-255.595 -320.99)" fill="#30aa44"/>
      <path id="Path_118" data-name="Path 118" d="M397.836,131.486c-.328-3.7-3.463-6.193-8.6-6.835-7.895-.986-12.926,3.822-14.574,11.184a3.232,3.232,0,0,1-1.178,1.863c-4.268,3.272-6.489,8.359-6.44,14.8a33.2,33.2,0,0,0,1.222,8.412,1.48,1.48,0,0,1-.55,1.586c-4.495,3.354-7.381,9.167-8.373,16.907a45.489,45.489,0,0,0,.158,11.916h0c12.405-4.555,20.642-10.946,24.547-19.339,3.317-7.129,3.023-14.232,2.786-19.939-.215-5.172-.369-8.908,2.446-9.782C394.47,140.647,398.229,135.916,397.836,131.486Z" transform="translate(-332.762 -124.523)" fill="#30aa44"/>
    </g>
    <path id="Path_119" data-name="Path 119" d="M364.75,179.4c.992-7.739,3.878-13.552,8.373-16.907a1.48,1.48,0,0,0,.55-1.586,33.214,33.214,0,0,1-1.222-8.412c-.049-6.44,2.171-11.527,6.44-14.8a3.23,3.23,0,0,0,1.178-1.863c1.3-5.812,4.712-10.029,9.974-11.064-.264-.045-.533-.086-.809-.12-7.894-.986-12.926,3.822-14.574,11.185a3.232,3.232,0,0,1-1.178,1.863c-4.268,3.272-6.489,8.359-6.44,14.8a33.216,33.216,0,0,0,1.222,8.412,1.48,1.48,0,0,1-.55,1.586c-4.495,3.354-7.381,9.167-8.373,16.907a45.487,45.487,0,0,0,.158,11.916q2.709-.995,5.15-2.108A45.47,45.47,0,0,1,364.75,179.4Z" transform="translate(-267.864 -88.85)" fill="#239b31"/>
  </g>
</svg>
