<svg xmlns="http://www.w3.org/2000/svg" width="32" height="32" viewBox="0 0 32 32">
  <g id="tel" transform="translate(0 0)">
    <g id="Group_35" data-name="Group 35" transform="translate(0 0)">
      <path id="Path_224" data-name="Path 224" d="M27.312,4.684A16,16,0,1,0,32,16,16,16,0,0,0,27.312,4.684Zm-3.081,17.6,0,0v-.005l-.811.805a4.267,4.267,0,0,1-4.027,1.152A14.177,14.177,0,0,1,15.274,22.4a19.023,19.023,0,0,1-3.248-2.619A19.169,19.169,0,0,1,9.6,16.834a14.932,14.932,0,0,1-1.824-3.691A4.267,4.267,0,0,1,8.842,8.786l.949-.949a.677.677,0,0,1,.958,0l0,0,3,3a.677.677,0,0,1,0,.958l0,0-1.76,1.76a1.435,1.435,0,0,0-.149,1.867,20.583,20.583,0,0,0,2.107,2.459A20.457,20.457,0,0,0,16.72,20.21a1.445,1.445,0,0,0,1.845-.16l1.7-1.728a.677.677,0,0,1,.958,0l0,0,3,3.008A.677.677,0,0,1,24.231,22.287Z" transform="translate(0 0)"/>
    </g>
  </g>
</svg>
