<svg xmlns="http://www.w3.org/2000/svg" width="108.393" height="127.922" viewBox="0 0 108.393 127.922">
  <g id="img-2" transform="translate(-89.373 -16)">
    <path id="Path_120" data-name="Path 120" d="M303.02,247.227l-2.175,6.526-18.558,18.278-5.805-2.978-3.872-1.985-5.808-2.978L272.565,232l13.052,2.175Z" transform="translate(-129.181 -157.266)" fill="#99d8aa"/>
    <path id="Path_121" data-name="Path 121" d="M251.584,236.464a32.632,32.632,0,0,1-3.127,20.4,2.175,2.175,0,0,0,.943,2.928l3.871,1.985,3.867-7.539a61.535,61.535,0,0,0,4.787-12.546l3.358-12.87Z" transform="translate(-115.651 -154.951)" fill="#8dc79d"/>
    <path id="Path_122" data-name="Path 122" d="M345.292,288.215a32.63,32.63,0,0,0-14.741,14.443,2.175,2.175,0,0,1-2.928.943l-2.716-1.394-1.155-.592,3.867-7.539a61.516,61.516,0,0,1,7.395-11.208l8.493-10.236Z" transform="translate(-170.646 -186.848)" fill="#8dc79d"/>
    <circle id="Ellipse_20" data-name="Ellipse 20" cx="21.754" cy="21.754" r="21.754" transform="translate(92.87 29.338)" fill="#dc4d41"/>
    <path id="Path_123" data-name="Path 123" d="M129.026,135.944a2.175,2.175,0,0,1-2.069-1.507,15.159,15.159,0,0,1-.163-8.794,2.175,2.175,0,1,1,4.188,1.178,10.82,10.82,0,0,0,.115,6.278,2.177,2.177,0,0,1-2.07,2.845Z" transform="translate(-26.828 -78.674)" fill="#f55648"/>
    <path id="Path_124" data-name="Path 124" d="M152.741,182.544a2.175,2.175,0,0,1-.59-.082,15.194,15.194,0,0,1-4.65-2.209,2.175,2.175,0,1,1,2.506-3.556,10.854,10.854,0,0,0,3.323,1.577,2.175,2.175,0,0,1-.588,4.269Z" transform="translate(-41.65 -116.711)" fill="#f55648"/>
    <path id="Path_125" data-name="Path 125" d="M198.076,32.327a2.175,2.175,0,0,1-2.094-2.765l1.039-3.694a22.9,22.9,0,0,1,5.074-9.156,2.175,2.175,0,0,1,3.219,2.927,18.523,18.523,0,0,0-4.1,7.407L200.17,30.74a2.175,2.175,0,0,1-2.095,1.587Z" transform="translate(-77.56)" fill="#5e8569"/>
    <path id="Path_126" data-name="Path 126" d="M139.019,293.165c-.005.1-.008.2-.014.3a21.688,21.688,0,0,1-13.194,19.157c-.133.057-.269.114-.405.169l-6.145,2.464c-.139.054-.275.109-.413.16a21.7,21.7,0,0,1-22.781-4.726l-.294-.285a20.874,20.874,0,0,1-6.067-11.6c-.016-.1-.033-.19-.046-.286a21.682,21.682,0,0,1,8.106-20.647,4.373,4.373,0,0,0,1.691-3.451,4.314,4.314,0,0,0-.16-1.169l-5.542-15.733,3.078-1.235,4.038-1.621,2.978-1.194,6.964,15.165a4.368,4.368,0,0,0,4.3,2.281,22.047,22.047,0,0,1,2.235-.114,21.68,21.68,0,0,1,17.892,9.437l.077.107a21.314,21.314,0,0,1,3.706,12.818Z" transform="translate(0 -172.898)" fill="#f3af3e"/>
    <path id="Path_127" data-name="Path 127" d="M140.342,284.263a2.178,2.178,0,0,1-2.1,1.612,2.125,2.125,0,0,1-.563-.076,23.972,23.972,0,0,1-10.295-5.795,23.933,23.933,0,0,1-3.434,11.3,2.176,2.176,0,0,1-3.72-2.26,19.674,19.674,0,0,0,1.438-17.452l-.81-2.018v-.005l-4.046-10.091,4.038-1.621v0l4.587,11.437.269.677A19.673,19.673,0,0,0,138.8,281.6,2.175,2.175,0,0,1,140.342,284.263Z" transform="translate(-19.976 -176.094)" fill="#da922a"/>
    <path id="Path_128" data-name="Path 128" d="M153.756,384.155l-4.421,6.909c-.133.057-.269.114-.405.169l-6.145,2.464c-.139.054-.275.109-.413.16l-7.967-1.942a16.666,16.666,0,0,1-12.666-17.561l.12-1.438a2.176,2.176,0,1,1,4.337.359l-.12,1.438a12.315,12.315,0,0,0,9.359,12.976l3.383.824-4.462-4.457a14.192,14.192,0,0,1-3.168-4.794,14.366,14.366,0,0,1-.538-9.022,2.175,2.175,0,1,1,4.2,1.126,9.949,9.949,0,0,0,2.578,9.612l6.374,6.36.209-9a9.9,9.9,0,0,0-.71-3.935,10.025,10.025,0,0,0-4.065-4.8,2.175,2.175,0,1,1,2.257-3.717,14.375,14.375,0,0,1,5.846,6.9,14.221,14.221,0,0,1,1.022,5.656l-.147,6.3,1.876-2.934a12.32,12.32,0,0,0-2.2-15.847l-1.082-.957a2.176,2.176,0,0,1,2.888-3.255l1.082.957a16.671,16.671,0,0,1,2.978,21.446Z" transform="translate(-23.523 -251.336)" fill="#da922a"/>
    <path id="Path_129" data-name="Path 129" d="M297.987,317.076l-5.955,11.614L288.16,326.7l5.955-11.614a2.176,2.176,0,1,1,3.872,1.985Z" transform="translate(-144.733 -216.901)" fill="#85bc94"/>
    <path id="Path_130" data-name="Path 130" d="M325.957,274.237a2.175,2.175,0,0,1-1.934-3.168L327,265.262a2.175,2.175,0,1,1,3.871,1.985l-2.979,5.807A2.175,2.175,0,0,1,325.957,274.237Z" transform="translate(-170.67 -180.621)" fill="#85bc94"/>
    <path id="Path_131" data-name="Path 131" d="M162,44.886l-2.308,1.295a14.857,14.857,0,0,1-6.561,1.882l-3.369.16.1-.359a14.854,14.854,0,0,1,7.032-8.933l-1.815-1.037a12.531,12.531,0,0,1-6.3-10.284l2.942.827a12.528,12.528,0,0,1,5.723,3.465l6.322,6.7,8.889-2.424a12.532,12.532,0,0,1,6.689.027l2.941.826a12.531,12.531,0,0,1-10.737,5.493l-2.089-.061A14.854,14.854,0,0,1,170.8,53.754l-.1.359-2.791-1.893a14.852,14.852,0,0,1-4.618-5.026Z" transform="translate(-43.254 -8.453)" fill="#6b9777"/>
    <path id="Path_132" data-name="Path 132" d="M287.7,167.11c.109-.178.212-.359.308-.547a8.705,8.705,0,0,0-6.648-12.605A19.574,19.574,0,0,0,251.8,138.8a8.706,8.706,0,0,0-14.116,1.956c-.1.188-.182.378-.264.569a15.227,15.227,0,1,0,8.3,25.37,19.6,19.6,0,0,0,16.53,8.478A15.227,15.227,0,1,0,287.7,167.11Z" transform="translate(-94.652 -87.381)" fill="#6b9777"/>
    <g id="Group_21" data-name="Group 21" transform="translate(133.259 51.505)">
      <path id="Path_133" data-name="Path 133" d="M267.991,155.144a2.168,2.168,0,0,1-1.5-.6,13.079,13.079,0,0,0-12.9-3.033,2.175,2.175,0,1,1-1.292-4.154,17.43,17.43,0,0,1,17.2,4.044,2.175,2.175,0,0,1-1.5,3.747Z" transform="translate(-250.764 -146.571)" fill="#5d8367"/>
      <path id="Path_134" data-name="Path 134" d="M435.506,237.188a2.171,2.171,0,0,1-1.729-.853,13.078,13.078,0,0,0-11.238-5.08,2.175,2.175,0,0,1-.3-4.341,17.43,17.43,0,0,1,14.99,6.775,2.175,2.175,0,0,1-1.726,3.5Z" transform="translate(-374.138 -205.039)" fill="#5d8367"/>
    </g>
  </g>
</svg>
