<svg xmlns="http://www.w3.org/2000/svg" width="74.552" height="82.166" viewBox="0 0 74.552 82.166">
  <g id="img-4" transform="translate(-23.724)">
    <path id="Path_148" data-name="Path 148" d="M61,82.166h0A57.38,57.38,0,0,0,98.275,28.423V13.916A13.916,13.916,0,0,1,84.359,0H37.64A13.916,13.916,0,0,1,23.724,13.916V28.423A57.38,57.38,0,0,0,61,82.166Z" fill="#ffdb0c"/>
    <path id="Path_149" data-name="Path 149" d="M256,82.166h0a57.38,57.38,0,0,0,37.276-53.743V13.916A13.916,13.916,0,0,1,279.359,0H256V82.166Z" transform="translate(-195)" fill="#fbbf00"/>
    <path id="Path_150" data-name="Path 150" d="M159,191.688,146.64,179.331l6.809-6.809L159,178.071l15.934-15.934,6.809,6.809Z" transform="translate(-103.19 -136.117)" fill="#f1f1f2"/>
    <path id="Path_151" data-name="Path 151" d="M256,186.5V172.879l10.742-10.742,6.809,6.809Z" transform="translate(-195 -136.117)" fill="#e6e6e6"/>
  </g>
</svg>
