<svg xmlns="http://www.w3.org/2000/svg" width="160" height="50.882" viewBox="0 0 160 50.882">
  <g id="生鮮logo" transform="translate(-0.05 -0.006)">
    <path id="Path_86" data-name="Path 86" d="M289.177,79.78l-3.545,1.678a6.609,6.609,0,0,0-.93.442,2.324,2.324,0,0,1-2.066.12c-.574-.149-.454-.645-.454-1.016a.934.934,0,0,1,.376-.661c.921-.616,1.872-1.186,2.818-1.76.483-.3.979-.578,1.475-.864l2.111-1.206c.07-.041.145-.078.219-.116l.211.087V67.76c-.917.364-1.677.69-2.454.971a7.643,7.643,0,0,1-4.132.657,5.874,5.874,0,0,1-3.223-1.372,2.637,2.637,0,0,1-.372-1.463,4.38,4.38,0,0,1,.124-1.43,27.765,27.765,0,0,1,1.715-4.706c.339-.707.492-1.5.826-2.2.5-.992.719-2.132,1.715-2.863a.678.678,0,0,1,.826-.074c.182.083.372.153.624.252a3.041,3.041,0,0,1-.413,2.211,7.814,7.814,0,0,0-.413,1.748,24.568,24.568,0,0,1-.826,3.657c-.174.479.062.777,0,1.149.541.05.541.05,1.607-.636l.124.343a1.3,1.3,0,0,0,.107-.149c.277-.578.826-.149,1.24-.359.744-.38,1.574-.583,2.347-.909a.764.764,0,0,0,.413-.55c0-1.2-.128-2.409-.058-3.607a1.5,1.5,0,0,1,.789-1.136,1.194,1.194,0,0,1,1.554,1.033c.116.756.248,1.508.413,2.252a3.063,3.063,0,0,0,.413.723,8.241,8.241,0,0,1,1.793-1.045c.826-.24,1.446-.826,2.206-1.124a6.735,6.735,0,0,1,1.777-.649c.446-.045.925.318,1.4.463.764.227,1.12.665.934,1.459a2.727,2.727,0,0,1-.76,1.446c-1.4,1.107-2.847,2.161-4.347,3.124a23.02,23.02,0,0,1-2.479,1.111.756.756,0,0,0-.314.574c-.029,1.215-.041,2.434,0,3.652s.12,2.339.194,3.508a1.452,1.452,0,0,0,.1.339,1.2,1.2,0,0,0,.413-.14c.368-.314.661-.785,1.078-.954,1.31-.521,1.983-1.694,2.855-2.653a8.247,8.247,0,0,0,.921-1.711,2.066,2.066,0,0,1,1.186,3.194,11.267,11.267,0,0,1-2.066,2.653,25.451,25.451,0,0,1-3.946,2.768c-.893.516-.707,1.3-.826,2-.194,1.268-.231,2.562-.393,3.838a27.9,27.9,0,0,1-.578,3.4,14.045,14.045,0,0,1-.938,2.149c-.07.161-.116.331-.219.62l1.632-.62,1.777-.686a.471.471,0,0,0,.165-.12,6.563,6.563,0,0,1,2.136-1.116c.455-.227.826-.6,1.268-.868a3.9,3.9,0,0,1,.8-.277.26.26,0,0,0,.124-.054c.459-.483,1.161-.541,1.653-.9.789-.562,1.752-.355,2.549-.764.14.351.442.727.413,1.049a4.305,4.305,0,0,1-2.066,3c-.888.578-1.8,1.128-2.731,1.653-.55.306-1.157.512-1.727.785s-1,.57-1.521.785c-1.359.566-2.731,1.1-4.107,1.653-1.149.446-2.293.913-3.462,1.293s-2.293.657-3.446.946c-.446.107-1.694-.673-1.587-.987A2.707,2.707,0,0,1,283,92.741a7.7,7.7,0,0,1,2.673-1.33c.512-.083.95-.554,1.458-.764.632-.264,1.306-.413,1.95-.665.169-.062.293-.248.376-.322-.256-.38-.653-.719-.719-1.111a5.892,5.892,0,0,1-.174-2.587,17.063,17.063,0,0,0,.413-2.793c.062-.649,0-1.306.021-1.958a12.3,12.3,0,0,1,.178-1.43Z" transform="translate(-188.954 -47.279)"/>
    <path id="Path_87" data-name="Path 87" d="M97.99,105.447a.926.926,0,0,0,1.12-1.107c-.145-1.149-.277-2.3-.376-3.45a1.054,1.054,0,0,1,.248-.574A6.58,6.58,0,0,1,99.5,99.7c.05.062.091.161.136.161,1.409.083,1.326,1.45,1.9,2.239a5.585,5.585,0,0,1,.45,1.132,23.51,23.51,0,0,1,1.88-1.454c.826-.533,1.764-.954,2.632-1.454.26-.145.413-.454.694-.574a8.165,8.165,0,0,1,1.822-.661.645.645,0,0,1,.806.723,2.334,2.334,0,0,1-.69,1.706,20.374,20.374,0,0,1-4.045,3,18.845,18.845,0,0,0-2.169,1.549.909.909,0,0,0-.178.665,17.14,17.14,0,0,0,.2,2.111c.2,1.124.471,2.235.711,3.363a11.727,11.727,0,0,1,1.578,0,22.183,22.183,0,0,1,2.479.508,13.01,13.01,0,0,1,2.892.971,1.876,1.876,0,0,1,.7,2.107c-1.215.343-2.264-.256-3.359-.607-.9-.285-1.793-.583-2.694-.876l-1.434-.454c.037.479.079.975.116,1.467a25.838,25.838,0,0,0,.331,3.756,10.993,10.993,0,0,1,.079,2.545,2.264,2.264,0,0,1-1.545,2.144c-.128.058-.248.12-.318.157a4.2,4.2,0,0,0-.789-.372c-.826-.182-.967-.533-.934-1.392.062-1.574,0-3.153-.066-4.731-.037-.9-.174-1.81-.281-2.925a12.515,12.515,0,0,0-.826,1.24,19.932,19.932,0,0,1-2.81,4.239,2.6,2.6,0,0,1-2.066.992c-.545,0-.859-.289-.64-.859.3-.777.62-1.549.987-2.293.314-.624.707-1.211,1.07-1.81.583-.954,1.173-1.9,1.756-2.855.438-.723.872-1.454,1.306-2.177.025-.041.033-.116.058-.12,1.268-.207.318-1.161.554-1.719.112-.26-.066-.64-.128-1.058l-2.686,1.5c-.463.26-.917.541-1.388.785-1.744.9-3.483,1.8-5.247,2.657a36.26,36.26,0,0,1-3.665,1.578,1.293,1.293,0,0,1-1.2-.3,2.066,2.066,0,0,1,.037-1.434c.091-.277.512-.454.826-.649.781-.529,1.554-1.078,2.368-1.549s1.653-.826,2.479-1.268c.388-.194.76-.413,1.145-.616s.876-.442,1.3-.682a28.437,28.437,0,0,1,2.731-1.5c.467-.194.735-.868,1.4-.636A5.441,5.441,0,0,0,97.99,105.447Z" transform="translate(-72.302 -73.037)"/>
    <path id="Path_88" data-name="Path 88" d="M65.305,62.076a7.569,7.569,0,0,0,.826-1.483,2,2,0,0,1,1.24-1.19c.583-.264.93.376,1.343.616.719.413.781,1.24.9,2.037.132.864.413,1.706.612,2.562a17.914,17.914,0,0,1,.731,5.417,2.562,2.562,0,0,1-.9,1.847.752.752,0,0,1-1.111-.107c-.413-.488-1.054-.892-.744-1.735.054-.153-.256-.413-.31-.64-.31-1.372-.595-2.752-.884-4.132a2.977,2.977,0,0,1,.025-.488c-1.165,1.541-2.161,3.033-3.347,4.351A5.06,5.06,0,0,1,61.206,71a1.946,1.946,0,0,1-2.066-.735,2.88,2.88,0,0,1-.442-2.38,16.344,16.344,0,0,1,.264-1.835c.062-.256.161-.5.215-.76a.979.979,0,0,0-.07-.347,2.579,2.579,0,0,0-.355.124c-.45.236-.9.471-1.339.723a3.279,3.279,0,0,1-2.553-.041,2.248,2.248,0,0,1-.992-1.69,13.306,13.306,0,0,1,1.008-3.566c.24-.467.335-1.008.574-1.479.475-.946.987-1.88,1.516-2.8.587-1.021,1.24-2,1.81-3.024.318-.566.826-.413,1.2-.293a.707.707,0,0,1,.376,1.025c-.64,1.475-1.322,2.929-1.921,4.417s-1.07,2.892-1.6,4.355l.26.2c.69-.521,1.417-1,2.066-1.578.748-.682,1.4-1.459,2.107-2.186.289-.3,2.012-.413,2.206-.062a1.913,1.913,0,0,1,.252,1.24c-.454,1.735-1.012,3.429-1.545,5.132,0,.062-.083.116-.091.178a4.282,4.282,0,0,0-.033.454,1.335,1.335,0,0,0,.413-.219q.793-.888,1.549-1.81c.343-.413.665-.864.975-1.31a4.429,4.429,0,0,0,.314-.645Z" transform="translate(-53.81 -44.831)"/>
    <path id="Path_89" data-name="Path 89" d="M103.746,62.844c.785-.289,1.467-.558,2.161-.781a2.814,2.814,0,0,1,.727-.045,5.324,5.324,0,0,1-.153.686,7.117,7.117,0,0,1-2.289,2.686.789.789,0,0,0-.264.467c-.083,1.083-.083,2.177-.223,3.252-.05.413-.413.74-.645,1.107l-.116-.186h-1.413a14.575,14.575,0,0,1-.281-2.2c0-.769.26-1.533.322-2.31.083-.954.078-1.917.112-2.892.041-1.33-.165-2.715.479-3.938a3.339,3.339,0,0,1,1.173-1.554,11.3,11.3,0,0,0,1.483-1.273.917.917,0,0,1,.343-.124,8.519,8.519,0,0,1,1.587-.413,3.115,3.115,0,0,1,1.607.314,2.318,2.318,0,0,1,1.277,1.425,16.5,16.5,0,0,1,.653,3.4,24.923,24.923,0,0,1-.136,3.884,4.739,4.739,0,0,1-1.314,2.958c-.727.764-1.19,1.789-1.913,2.562a5.432,5.432,0,0,1-3.305,2.066c-.884.1-1.471-.483-1.24-1.149.074-.2.256-.471.413-.5,1.178-.182,1.822-1.1,2.582-1.839.529-.516.872-1.24,1.4-1.735s.252-1.012.285-1.5a29.536,29.536,0,0,0,0-3.578,27.614,27.614,0,0,0-.306-2.892c-.025-.145-.413-.413-.57-.339a3.4,3.4,0,0,0-2.248,1.653,4.639,4.639,0,0,0-.207,1.43C103.721,61.9,103.746,62.3,103.746,62.844Z" transform="translate(-81.619 -46.333)"/>
    <path id="Path_90" data-name="Path 90" d="M134.229,59.032q-.694-1.859-1.368-3.719a4.384,4.384,0,0,1-2.314,1.892,3.206,3.206,0,0,1-1.281-.14,2.3,2.3,0,0,1-.917-.343c-.975-.756-.826-1.855-.789-2.892,0-.55.074-1.1.1-1.653a4.165,4.165,0,0,0-.058-.6,2,2,0,0,1-2.789-.116c-.475-.442-.331-.946-.273-1.384a27.366,27.366,0,0,1,1.806-6.669c.033-.087.05-.194.116-.248.273-.215.558-.413.826-.611.136.335.413.69.38,1.008-.124,1.025-.376,2.033-.558,3.049a7.272,7.272,0,0,0-.12,1.93c.289-.343.562-.7.872-1.025a9.407,9.407,0,0,1,1.165-1.095,4.731,4.731,0,0,1,1.24-.649c.231-.083.678-.079.773.062.289.413.74.826.55,1.459a19.906,19.906,0,0,1-.554,2.058,11.336,11.336,0,0,0-.645,3.384,2.418,2.418,0,0,0,.083,1.054,5.833,5.833,0,0,0,.64-.987c.413-1.07,1.087-2.066,1-3.305-.029-.413.826-1.215,1.24-1.194s.909,0,1.116.24a2.814,2.814,0,0,1,.331,1.24c.2,1.512.343,3.033.574,4.545a6.133,6.133,0,0,1-.7,4.5.777.777,0,0,1-.2.182A1,1,0,0,1,134.229,59.032Z" transform="translate(-96.082 -38.473)"/>
    <path id="Path_91" data-name="Path 91" d="M89.394,50.012c-.616-1.289.256-1.946.992-2.529a23.667,23.667,0,0,1,3.483-2.343,9.3,9.3,0,0,1,2.553-.669c.442-.091.512.128.343.529a6.974,6.974,0,0,1-2.95,3.231A9.3,9.3,0,0,0,92,49.5C91.174,50.326,90.257,50.016,89.394,50.012Z" transform="translate(-74.539 -39.588)"/>
    <path id="Path_92" data-name="Path 92" d="M419.247,58.648c-1.529.685-2.839,1.258-4.132,1.859a2.885,2.885,0,0,1-2.289.148c-.355-.128-.715.12-1.111-.373a1.643,1.643,0,0,1-.19-1.558,4.925,4.925,0,0,1,.653-1.2c.446-.841.9-1.683,1.31-2.544s.748-1.659,1.083-2.5c.372-.929.661-1.887,1.054-2.8a5.524,5.524,0,0,0,.492-2.4.683.683,0,0,1,.175-.57.73.73,0,0,1,.565-.232.924.924,0,0,1,.925.909,10.832,10.832,0,0,1-.306,2.56c-.459,1.6-1.062,3.205-1.591,4.808-.124.377-.186.773-.281,1.178l.355.224,6.227-3.361a3.8,3.8,0,0,0,.826.264c.455.028.591.248.826.637.574,1.014-.3,1.5-.694,2.123-.574.913-1.273,1.747-1.9,2.628a.865.865,0,0,0-.19.549c.091.641.244,1.27.339,1.755l3.586-.4.087.276a9.3,9.3,0,0,1-3.33,2.52c.1,1.31.186,2.66.293,4.006.041.5.459.4.7.272.483-.216.9-.565,1.38-.8,1.116-.513,2-1.446,3.338-1.562.628-.056.665.252.628.649-.091.982-.95,1.37-1.653,1.819-1.277.8-2.615,1.538-3.913,2.328a.8.8,0,0,0-.335.577c0,1.162.1,2.324.116,3.49,0,1.022-.083,2.047-.058,3.073.037,1.631.157,3.257.194,4.884s.021,3.369,0,5.056a11.951,11.951,0,0,1-.116,2.752,2.94,2.94,0,0,1-1.194,1.438c-.219.152-.868-.052-1.161-.28a1.628,1.628,0,0,1-.578-1.066c-.107-1.583-.116-3.177-.174-4.764-.029-.777-.132-1.554-.116-2.328,0-1.03.145-2.059.178-3.089,0-.609-.062-1.226-.066-1.839V74.518c0-.677-.037-1.354-.054-2.031v-.9c-.611.272-1.186.553-1.777.8a11.857,11.857,0,0,1-1.744.585.837.837,0,0,1-.711-.317.887.887,0,0,1,.136-.8,5.331,5.331,0,0,1,1.178-.869c.826-.481,1.694-.881,2.479-1.4.521-.337.45-.937.38-1.482a2.418,2.418,0,0,1-.1-.529,9.495,9.495,0,0,0,.178-1.3,14.393,14.393,0,0,0-.3-1.727c-.934.425-1.8.825-2.673,1.2a10.974,10.974,0,0,1-2.02.841,2.011,2.011,0,0,1-1.425-.321c-.347-.248-.248-.745.12-1.1,1.6-1.526,3.21-3.041,4.776-4.6a22.453,22.453,0,0,0,1.6-1.923Zm-2.219,4.078c1.673-.337,1.868-.525,1.76-1.6C418.164,61.685,417.6,62.206,417.028,62.727Z" transform="translate(-268.032 -40.772)"/>
    <path id="Path_93" data-name="Path 93" d="M368.387,54.593c.355-.194.719-.372,1.062-.587a8.047,8.047,0,0,0,1.863-1.268c.471-.554.983-.475,1.438-.769.293-.19.413-.112.826.136a2.347,2.347,0,0,0,.657.124c.2.045.533.07.57.182a2.58,2.58,0,0,1,.248,1.384,10.774,10.774,0,0,1-1.173,2.479c-.793,1.24-1.739,2.417-2.533,3.673-.632,1-1.136,2.095-1.7,3.148l.153.128c.512-.211,1.021-.413,1.537-.628a22.868,22.868,0,0,0,2.479-.954,13.064,13.064,0,0,1,2.516-.583c.748-.215,1.872.884,2.091,1.847a22.846,22.846,0,0,1,.57,5.425,7.049,7.049,0,0,1-1.7,4.545,20.988,20.988,0,0,1-4.367,3.8,10.81,10.81,0,0,1-2.657,1.653c-.57.2-.859-.211-1.24-.368-.174-.079-.186-.64-.178-.979a2.259,2.259,0,0,1,.277-.7c-1.562.054-2.235-.632-2.293-2.19-.046-1.24-.2-2.479-.293-3.694-.1-1.3-.153-2.6-.277-3.9a17.586,17.586,0,0,1,.091-2.892,8.265,8.265,0,0,1,1.479-3.851c.331-.471.578-1,.88-1.487.062-.1.2-.145.285-.24.153-.174.293-.368.438-.554l-.186-.174a9.6,9.6,0,0,0-1,.673,1.615,1.615,0,0,1-2.239.223,1.8,1.8,0,0,1-.364-1.5c.393-1.678.938-3.305,1.4-4.979.2-.715.3-1.459.516-2.173.079-.264.326-.645.537-.673a.76.76,0,0,1,.93.632,6.023,6.023,0,0,1,0,1.7c-.2,1.078-.512,2.132-.777,3.2Zm2.355,14.874a9.358,9.358,0,0,0,1.227-.723,1.24,1.24,0,0,0,.413-.826c0-.9-.12-1.806-.194-2.739a3.057,3.057,0,0,0-.876.211c-1.264.673-1.314.467-1.008,1.756.186.744.285,1.5.426,2.334Zm2.673,3.628c.459-.355.826-.611,1.173-.9a10.874,10.874,0,0,0,1.611-1.525c.669-.9.145-1.925.3-2.723a3.408,3.408,0,0,1-1.021.719,1.531,1.531,0,0,0-.979,1.81c0,.07-.074.161-.107.244-.314.773-.624,1.533-.975,2.392Zm1.24-5.859a6.367,6.367,0,0,1,.707-.438c.946-.442.975-.479.8-1.475a2.382,2.382,0,0,0-.19-.864.826.826,0,0,0-.673-.355,16.859,16.859,0,0,0-1.822.612Zm-2.446,3.376-.2-.149c-.529.318-1.322.339-1.24,1.31.054.587,0,1.186,0,1.777h.194c.434-.971.847-1.946,1.256-2.925Z" transform="translate(-241.153 -42.169)"/>
    <path id="Path_94" data-name="Path 94" d="M401.253,118.091a18.7,18.7,0,0,1,.083,2.091,32.029,32.029,0,0,1-.413,4.132,3.068,3.068,0,0,1-1.062,1.463c-.446.4-1.508-.236-1.781-.888a8.747,8.747,0,0,1-.574-3.719c0-1.025-.124-2.066-.05-3.074a5.111,5.111,0,0,1,.6-1.793c.223-.45.694-.45,1.219-.182.219.112.492.112.723.2A1.626,1.626,0,0,1,401.253,118.091Z" transform="translate(-259.827 -82.675)"/>
    <path id="Path_95" data-name="Path 95" d="M363,137.161a2.7,2.7,0,0,1-.236-3.215c.521-.963.847-2.037,1.372-3a11.86,11.86,0,0,1,1.5-2.066c.31-.359,1.355.211,1.355.793a6.008,6.008,0,0,1-.306,2.033c-.413,1.107-1,2.14-1.438,3.231A3.562,3.562,0,0,1,363,137.161Z" transform="translate(-238.35 -90.467)"/>
    <path id="Path_96" data-name="Path 96" d="M378.762,126.72c.438.169.789.293,1.128.446a1.5,1.5,0,0,1,1,1.921c-.128.76-.264,1.52-.438,2.272a2.256,2.256,0,0,1-1.3,1.682.826.826,0,0,1-.7-.207,2.512,2.512,0,0,1-.616-2.252,2.937,2.937,0,0,0,.136-1.492C377.671,128.141,378.647,127.608,378.762,126.72Z" transform="translate(-248.293 -89.265)"/>
    <path id="Path_97" data-name="Path 97" d="M391.566,125.1l-.372,2.81c0,.045,0,.107-.029.132-.38.322-.735.855-1.145.9-.492.058-.764-.5-.8-1.037-.083-1.219-.194-2.434-.236-3.648a1.116,1.116,0,0,1,.826-1.24,1.479,1.479,0,0,1,1.516,1.037c.079.331.12.669.178,1Z" transform="translate(-254.862 -86.816)"/>
    <path id="Path_98" data-name="Path 98" d="M409.08,52.474a.963.963,0,0,1,1.293-.636,3.875,3.875,0,0,1,1.942.76,2.761,2.761,0,0,1,.826,1.087c.07.215.058.6-.074.7a.983.983,0,0,1-.777.1A6.4,6.4,0,0,1,409.08,52.474Z" transform="translate(-266.662 -44.104)"/>
    <path id="Path_99" data-name="Path 99" d="M220.541,107.075c-2.806,1.343-5.619,2.7-8.441,4.033a10.118,10.118,0,0,1-1.653.554c-.132.033-.31-.112-.467-.174a1.385,1.385,0,0,1,.264-.413,39.028,39.028,0,0,1,5.508-3.5c1.14-.545,2.177-1.306,3.272-1.946a1.955,1.955,0,0,1,.653-.136,1.15,1.15,0,0,0,1.107-1.384,1.1,1.1,0,0,1,.157-.636,3.962,3.962,0,0,1,.727-.826.921.921,0,0,1,1.132-.033,5.5,5.5,0,0,0,.624.26,3.257,3.257,0,0,1,.521.851,8.678,8.678,0,0,1,.174,1.57c.033.566,0,1.132.045,1.694q.1,1.541.256,3.086c.116,1.173.3,2.339.376,3.512.1,1.554.1,3.111.182,4.665s.244,3.124.339,4.685a2.774,2.774,0,0,1-.471,2.169c-.715.826-1.446.744-2.43.293-1.417-.657-1.24-1.876-1.492-2.991a11.646,11.646,0,0,1-.252-1.806c-.05-.975,0-1.954-.05-2.929-.037-.748-.2-1.492-.244-2.239s0-1.582,0-2.376V112c-1.653,1.2-3.2,2.4-4.822,3.5a13.162,13.162,0,0,1-2.3,1.091,1.425,1.425,0,0,1-1.363-.752c-.174-.521.227-.76.583-1.008q1.537-1.074,3.066-2.157a8.512,8.512,0,0,0,1.616-1.182c.847-.987,2.12-1.409,2.954-2.351.293-.335.252-.967.351-1.467A4.6,4.6,0,0,0,220.541,107.075Z" transform="translate(-147.329 -75.016)"/>
    <path id="Path_100" data-name="Path 100" d="M184.078,72.021c.31-.293.661-.8.826-.748.826.289,1.178-.483,1.686-.752a17.381,17.381,0,0,1,2.1-.826c.413-.153,1,.12,1.512.194.256.041.517.074.826.116a6,6,0,0,1,.826,3.351c.029,1.206.091,2.4.12,3.6a4.578,4.578,0,0,1-1.149,3.169c-.554.64-2.479.777-3.351.438a4.277,4.277,0,0,1-2-1.487c-.289.859-.488,1.591-.773,2.289a27.447,27.447,0,0,1-1.545,3.38,2.892,2.892,0,0,1-1.479,1.016c-.264.1-.748,0-.963-.632-.446-1.3.2-2.339.5-3.458.339-1.24.769-2.479,1.186-3.681.124-.368.368-.7.463-1.07a.6.6,0,0,0-.318-.5,5.675,5.675,0,0,0-1.19-.12c-.45,0-1.289-.826-1.388-1.277a1.2,1.2,0,0,1,.892-1.653c.326-.1.578-.434.9-.607.145-.079.413.045.545-.033.413-.207.752-.516,1.161-.7A1.48,1.48,0,0,1,184.078,72.021Zm4.045,1.814c-.516.244-1.041.467-1.537.735a.764.764,0,0,0-.364.45c-.124.624-.194,1.24-.269,1.8.256.074.488.128.715.2.347.124.686.26,1.033.413a5.681,5.681,0,0,0,.413-1.24c.045-.785,0-1.562,0-2.359Z" transform="translate(-129.282 -54.966)"/>
    <path id="Path_101" data-name="Path 101" d="M192.762,40.9a20.005,20.005,0,0,1,1.715-1.149c.678-.38,1.43-.632,2.107-1.021.488-.281.888-.707,1.351-1.037s.967-.661,1.459-.975c.376-.244.76-.471,1.145-.7s.764-.636,1.124-.612a3.719,3.719,0,0,1,1.562.62c.479.293.157.7.033,1.1-.376,1.194-1.4,1.723-2.3,2.4-.6.446-1.169.946-1.81,1.335-1.632.983-3.272,1.954-4.958,2.859s-3.421,1.8-5.177,2.6a19.834,19.834,0,0,1-2.892.95c-.372.107-1.81-.938-1.723-1.281a3.164,3.164,0,0,1,.694-1.1,2.892,2.892,0,0,1,1.413-.971,3.305,3.305,0,0,0,1.611-1.33,24.443,24.443,0,0,0,1.583-2.644c.256-.5.26-1.128.512-1.628.545-1.078.12-2.235.359-3.334a11.837,11.837,0,0,0,0-1.483c.066-.735.76-.694,1.24-.789a1.247,1.247,0,0,1,1.359.959c.826,2.3.364,4.669-.541,7.024Z" transform="translate(-132.042 -32.69)"/>
    <path id="Path_102" data-name="Path 102" d="M234.6,58c.306,1.525-.69,2.066-1.434,2.731,1.012.483.7,1.562,1.07,2.33.578,1.24,1.1,2.479,1.653,3.719a6.278,6.278,0,0,0,.413.789c.611.975,1.24,1.938,1.843,2.892.1.165.161.351.285.616a5.394,5.394,0,0,1-4.52-3.2c-.136.678-.227,1.24-.364,1.822a6.629,6.629,0,0,1-2.111,3c-.174.178-.376.331-.558.5-.876.826-1.839.05-2.76.124-.165,0-.364-.413-.438-.479a9.622,9.622,0,0,1,0-.992c.066-.529.182-1.049.256-1.578a19.837,19.837,0,0,1,.335-2.334,27.327,27.327,0,0,0,.649-5.235,4.28,4.28,0,0,1,1.715-2.7,9.917,9.917,0,0,1,2.087-1.52A8.629,8.629,0,0,1,234.6,58Zm-2.149,3.161-1.566.591v6.842l2.822-1.054c-.843-1.95-1.814-3.962-1.256-6.384Z" transform="translate(-157.862 -47.938)"/>
    <path id="Path_103" data-name="Path 103" d="M211.029,63.729a18.22,18.22,0,0,0,1.24-1.359,21.752,21.752,0,0,0,1.24-1.921c.236-.413.562-.6.967-.413s.686.492.388,1.012c-.525.921-1.008,1.863-1.537,2.781-.26.454-.636.851-.859,1.322a2.52,2.52,0,0,0-.186,1.1c0,1.049.033,2.1.136,3.148.12,1.215.339,2.421.488,3.632A7.061,7.061,0,0,1,213,74.769a2.892,2.892,0,0,1-.554,1.347c-.3.388-.7.145-1.149,0a1.442,1.442,0,0,1-1.091-1.132,11.156,11.156,0,0,1-.244-1.785c-.091-.826-.227-1.653-.252-2.479-.041-1.487,0-2.979-.025-4.471a1.33,1.33,0,0,0-.264-.678c-.26-.355-.587-.665-.859-1.012-.413-.537-.8-1.095-1.211-1.653a.413.413,0,0,0-.277-.116c-.665,0-.6-.413-.38-.781a1.037,1.037,0,0,1,1.24-.537c1.041.413,2.2.653,2.624,1.921C210.612,63.576,210.86,63.638,211.029,63.729Z" transform="translate(-145.184 -49.129)"/>
    <path id="Path_104" data-name="Path 104" d="M202.721,121.028a26.86,26.86,0,0,1-.434,3.669,12.908,12.908,0,0,1-1.211,3.76,2.492,2.492,0,0,1-2.314,1.058c-.413-.145-.45-.413-.529-.773a2.139,2.139,0,0,1,.161-1.938.177.177,0,0,0,0-.07,27.018,27.018,0,0,1,.62-2.764,15.787,15.787,0,0,0,.632-5.685,4.59,4.59,0,0,0-.285-1.3c-.174-.5.079-.645.483-.653a2.537,2.537,0,0,1,2.19,1.731C202.3,119.057,202.5,120.061,202.721,121.028Z" transform="translate(-140.084 -83.168)"/>
  </g>
</svg>
